<?xml version="1.0" encoding="utf-8"?>
<!-- Generator: Adobe Illustrator 19.1.0, SVG Export Plug-In . SVG Version: 6.00 Build 0)  -->
<svg version="1.1" xmlns="http://www.w3.org/2000/svg" xmlns:xlink="http://www.w3.org/1999/xlink" x="0px" y="0px"
	 width="652.9px" height="108.2px" viewBox="0 0 652.9 108.2" style="enable-background:new 0 0 652.9 108.2;" xml:space="preserve"
	>
<g>
	<g>
		<path d="M106,3.6l38.9,0c10.8,0,19.2,3,24.8,8.6c4.7,4.7,7.3,11.4,7.3,19.5V32c0,13.7-7.4,22.4-18.2,26.4
			l20.8,30.4l-21.9,0l-18.2-27.2l-14.7,0l0,27.2l-18.7,0L106,3.6z M143.7,45c9.1,0,14.4-4.9,14.4-12v-0.2c0-8-5.6-12.2-14.7-12.2
			l-18.6,0l0,24.4L143.7,45z"/>
		<path d="M175.6,56.5v-0.2c0-18.6,13.3-33.9,32.2-33.9c21.8,0,31.7,16.9,31.7,35.4c0,1.5-0.1,3.2-0.2,4.9
			l-45.4,0c1.8,8.4,7.7,12.8,15.9,12.8c6.2,0,10.7-1.9,15.8-6.7l10.6,9.4c-6.1,7.5-14.8,12.2-26.6,12.2
			C190.1,90.2,175.6,76.5,175.6,56.5z M221.6,51.1c-1.1-8.3-6-13.9-13.7-13.9c-7.7,0-12.6,5.5-14.1,13.9L221.6,51.1z"/>
		<path d="M237.6,76.4l11.1-13.3c7.7,6.3,15.7,10.3,25.4,10.3c7.7,0,12.3-3,12.3-8v-0.2
			c0-4.7-2.9-7.2-17.1-10.8C252,50,241,45.2,241,28.3v-0.2c0-15.4,12.4-25.7,29.8-25.7c12.4,0,23,3.9,31.6,10.8l-9.7,14.1
			c-7.5-5.2-15-8.4-22.1-8.4c-7.2,0-10.9,3.3-10.9,7.4v0.2c0,5.6,3.6,7.4,18.4,11.2c17.3,4.5,27,10.7,27,25.5v0.2
			c0,16.9-12.9,26.4-31.3,26.4C260.8,90,247.8,85.5,237.6,76.4z"/>
		<path d="M307.3,0l18.5,0l0,32.8c4.3-5.5,9.7-10.5,19.1-10.5c14,0,22.1,9.2,22.1,24.2l0,42.2l-18.5,0V52.4
			c0-8.8-4.1-13.3-11.2-13.3c-7.1,0-11.6,4.5-11.6,13.3v36.4l-18.5,0L307.3,0z"/>
		<path d="M369.8,70v-0.2c0-14.2,10.8-20.8,26.3-20.8c6.6,0,11.3,1.1,15.9,2.7v-1.1c0-7.7-4.7-11.9-14-11.9
			c-7.1,0-12,1.3-18,3.5l-4.6-14.1c7.2-3.2,14.2-5.2,25.3-5.2c10.1,0,17.4,2.7,22,7.3c4.9,4.9,7.1,12,7.1,20.8v37.8l-17.9,0v-7.1
			c-4.5,5-10.7,8.3-19.7,8.3C379.9,90,369.8,82.9,369.8,70z M412.2,65.8v-3.3c-3.2-1.5-7.3-2.4-11.8-2.4c-7.9,0-12.8,3.2-12.8,9v0.2
			c0,5,4.1,7.9,10.1,7.9C406.4,77.2,412.2,72.5,412.2,65.8z"/>
		<path d="M433,23.6l18.5,0v13.1c3.8-9,9.9-14.8,20.8-14.4v19.3h-1c-12.3,0-19.8,7.4-19.8,23v24.1l-18.5,0
			V23.6z"/>
		<path d="M475.6,23.6l18.5,0V33c4.5-6.1,10.7-10.6,20.3-10.6c15.2,0,29.7,11.9,29.7,33.7v0.2
			c0,21.8-14.2,33.7-29.7,33.7c-9.9,0-15.9-4.5-20.3-9.7v28l-18.5,0L475.6,23.6z M525.6,56.3v-0.2c0-10.8-7.3-18-15.9-18
			c-8.6,0-15.8,7.2-15.8,18v0.2c0,10.8,7.2,18,15.8,18C518.3,74.3,525.6,67.3,525.6,56.3z"/>
		<path d="M546.7,56.5v-0.2c0-18.6,13.3-33.9,32.2-33.9c21.8,0,31.7,16.9,31.7,35.4c0,1.5-0.1,3.2-0.2,4.9
			l-45.4,0c1.8,8.4,7.7,12.8,15.9,12.8c6.2,0,10.7-1.9,15.8-6.7l10.6,9.4c-6.1,7.5-14.8,12.2-26.6,12.2
			C561.2,90.2,546.7,76.5,546.7,56.5z M592.7,51.1c-1.1-8.3-6-13.9-13.7-13.9c-7.7,0-12.6,5.5-14.1,13.9L592.7,51.1z"/>
		<path d="M613.6,23.6l18.5,0v13.1c3.8-9,9.9-14.8,20.8-14.4l0,19.3h-1c-12.3,0-19.8,7.4-19.8,23v24.1
			l-18.5,0V23.6z"/>
	</g>
	<g>
		<rect x="0" y="3.7" style="fill:#000000;" width="85" height="85"/>
		<rect x="8" y="72.8" style="fill:#FFFFFF;" width="31.9" height="5.3"/>
		<path style="fill:#FFFFFF;" d="M31.1,31h-2.3v-3.9h3l0.8-4.5h-2.7v-3.9h3.3l0.8-4.4h4l-0.8,4.4h4.4l0.8-4.4h4l-0.8,4.4h2.3v3.9h-3
			l-0.8,4.5h2.7V31h-3.3l-0.8,4.6h-4l0.8-4.6h-4.4l-0.8,4.6h-4L31.1,31z M40.1,27.1l0.8-4.5h-4.4l-0.8,4.5H40.1z"/>
		<path style="fill:#FFFFFF;" d="M8,14.3h9.7c2.7,0,4.8,0.7,6.2,2.2c1.2,1.2,1.8,2.8,1.8,4.9v0.1c0,1.7-0.4,3.1-1.3,4.2
			c-0.8,1.1-1.9,1.9-3.3,2.4l5.2,7.6h-5.5L16.5,29h-3.9l0,6.5H8V14.3z M17.4,24.6c1.2,0,2-0.3,2.7-0.8c0.6-0.5,0.9-1.3,0.9-2.2v-0.1
			c0-1-0.3-1.8-1-2.3c-0.6-0.5-1.5-0.8-2.7-0.8h-4.6v6.1H17.4z"/>
	</g>
</g>
</svg>
